PathFileType	4	(x/y/z)	S06_P20_T63
DataRate	CameraRate	NumFrames	NumMarkers	Units	OrigDataRate	OrigDataStartFrame	OrigNumFrames
240	240	10	51	mm	240	222	355
Frame#	Time	Sternum			R.Acromium			L.Acromium			Top.Head			R.ASIS			L.ASIS			R.PSIS			L.PSIS			R.Great.Tro			L.Great.Tro			R.Iliac.Crest			L.Iliac.Crest			V.Sacral			R.Thigh.Upper.Post			R.Thigh.Lower.Ant			R.Thigh.Lower.Post			R.Thigh.Upper.Ant			R.Knee.Lat			R.Knee.Med			R.Shank.Upper.Post			R.Shank.Lower.Ant			R.Shank.Lower.Post			R.Shank.Upper.Ant			R.Ankle.Lat			R.Ankle.Med			R.Heel.Upper			R.Heel.Med			R.Heel.Lat			R.Toe.Lat			R.Toe.Med			R.Toe.Tip			L.Thigh.Upper.Post			L.Thigh.Lower.Ant			L.Thigh.Lower.Post			L.Thigh.Upper.Ant			L.Knee.Lat			L.Knee.Med			L.Shank.Upper.Post			L.Shank.Lower.Ant			L.Shank.Lower.Post			L.Shank.Upper.Ant			L.Ankle.Lat			L.Ankle.Med			L.Heel.Upper			L.Heel.Med			L.Heel.Lat			L.Toe.Lat			L.Toe.Med			L.Toe.Tip			Cervical.Spine			Back			
		X1	Y1	Z1	X2	Y2	Z2	X3	Y3	Z3	X4	Y4	Z4	X5	Y5	Z5	X6	Y6	Z6	X7	Y7	Z7	X8	Y8	Z8	X9	Y9	Z9	X10	Y10	Z10	X11	Y11	Z11	X12	Y12	Z12	X13	Y13	Z13	X14	Y14	Z14	X15	Y15	Z15	X16	Y16	Z16	X17	Y17	Z17	X18	Y18	Z18	X19	Y19	Z19	X20	Y20	Z20	X21	Y21	Z21	X22	Y22	Z22	X23	Y23	Z23	X24	Y24	Z24	X25	Y25	Z25	X26	Y26	Z26	X27	Y27	Z27	X28	Y28	Z28	X29	Y29	Z29	X30	Y30	Z30	X31	Y31	Z31	X32	Y32	Z32	X33	Y33	Z33	X34	Y34	Z34	X35	Y35	Z35	X36	Y36	Z36	X37	Y37	Z37	X38	Y38	Z38	X39	Y39	Z39	X40	Y40	Z40	X41	Y41	Z41	X42	Y42	Z42	X43	Y43	Z43	X44	Y44	Z44	X45	Y45	Z45	X46	Y46	Z46	X47	Y47	Z47	X48	Y48	Z48	X49	Y49	Z49	X50	Y50	Z50	X51	Y51	Z51	

222	0.92083	-150.07	1275.7	317.25	-263.33	1484.9	486.13	-287.46	1479.9	133.31	-267.72	1800.4	303.61	-207.74	1038.2	446.66	-191.74	1036.4	195.19	NaN	NaN	NaN	-397.65	1063.5	263.94	-274.36	972.79	494.22	-274.82	967.09	135.4	-288.41	1118.4	472.65	-260.78	1109.6	155.23	-412.46	1028.4	306.93	-302.79	720.97	471.08	-258.14	637.12	432.88	-325.67	637.48	448.28	-230.9	721.24	454.64	-326.8	523.25	426.77	-321.86	535.24	299.38	-443.93	320.6	416.37	-411.49	241.44	387.37	-475.33	251.93	398.1	-380.2	309.6	405.98	-494.75	118.65	366.2	-481.95	121.23	276.66	-572.64	86.047	316.08	-566.28	53.119	287.06	-566.83	55.167	351.77	-390.98	36.17	395.6	-363.71	39.616	273.54	-296.82	47.034	321.43	-126.59	735.77	152.92	-59.685	678.75	219.76	-112.8	646.71	170.07	-83.274	769.4	200.32	-93.782	558.43	186.65	-80.131	568.41	309.02	-65.695	330.03	190.39	15.357	292.21	190.39	-47.26	259.83	206.16	-6.2975	359.68	181.14	47.651	133.15	200.41	53.028	147.23	292.56	-6.094	64.889	246.6	11.006	45.065	281.57	13.63	42.417	219.93	178.67	113.15	184.01	187.81	137.46	299.64	247.44	178.34	246.15	-333.58	1536.3	313.19	-391.59	1264.8	317.66
223	0.925	-144.24	1274.9	317.06	-257.64	1484.1	485.98	-281.84	1479.2	133.14	-262.19	1799.7	303.39	-201.85	1037.5	446.58	-185.77	1035.5	195.07	NaN	NaN	NaN	-391.72	1062.7	263.58	-268.61	972.11	493.98	-268.72	966.35	135.17	-282.6	1117.6	472.43	-254.74	1108.8	154.98	-406.52	1027.5	306.56	-297.27	720.39	470.94	-252.62	636.45	432.97	-320.18	636.89	448.17	-225.31	720.58	454.71	-321.67	522.68	426.77	-316.36	534.57	299.44	-440.8	321.2	416.27	-409.26	241.68	387.25	-472.91	252.9	397.99	-377.16	309.51	405.98	-493.81	119.65	366.06	-481.06	122.22	276.59	-571.95	87.737	315.86	-565.86	54.807	286.8	-566.46	56.787	351.53	-390.88	36.154	395.5	-363.46	39.505	273.47	-296.6	46.607	321.43	-121.32	734.72	153.02	-54.311	677.74	219.81	-107.69	645.7	170.43	-77.767	768.4	200.12	-88.669	557.43	186.97	-74.642	567.7	309.32	-60.552	328.99	190.76	20.452	291.15	191.05	-42.216	258.79	206.58	-1.1257	358.6	181.76	52.724	132.21	201.07	57.764	146.25	293.25	-1.1121	64.209	247	15.732	44.331	281.97	18.649	41.745	220.38	183.92	112.08	185.25	192.43	136.46	300.87	252.37	177.24	247.69	-327.95	1535.6	313.03	-385.76	1264	317.44
224	0.92917	-138.41	1274.3	316.86	-251.96	1483.4	485.82	-276.22	1478.4	132.96	-256.65	1799	303.17	-195.95	1036.8	446.49	-179.78	1034.7	194.94	NaN	NaN	NaN	-385.77	1061.8	263.22	-262.83	971.46	493.73	-262.61	965.64	134.95	-276.77	1116.9	472.2	-248.71	1108	154.73	-400.56	1026.7	306.19	-291.68	719.82	470.82	-246.98	635.8	433.12	-314.57	636.3	448.06	-219.64	719.96	454.83	-316.39	522.12	426.82	-310.67	533.88	299.56	-437.57	321.89	416.2	-406.94	241.99	387.19	-470.4	253.97	397.9	-374.02	309.49	406.02	-492.8	120.74	365.97	-480.09	123.32	276.56	-571.17	89.603	315.69	-565.37	56.684	286.57	-566.03	58.573	351.32	-390.77	36.136	395.41	-363.21	39.418	273.41	-296.39	46.199	321.43	-116	733.72	153.14	-48.829	676.78	219.81	-102.53	644.73	170.8	-72.153	767.46	199.87	-83.5	556.46	187.28	-69.009	567.05	309.57	-55.676	327.96	191.13	25.218	289.98	191.73	-37.543	257.75	207.02	3.8186	357.46	182.38	57.239	131.16	201.74	61.949	145.13	293.96	3.2244	63.56	247.37	19.755	43.581	282.35	22.981	41.086	220.8	188.58	110.74	186.52	196.47	135.12	302.14	256.79	175.74	249.29	-322.32	1534.9	312.86	-379.93	1263.2	317.21
225	0.93333	-132.58	1273.6	316.63	-246.28	1482.8	485.65	-270.6	1477.7	132.76	-251.11	1798.4	302.95	-190.02	1036.2	446.39	-173.78	1033.9	194.79	NaN	NaN	NaN	-379.81	1061	262.87	-257.02	970.86	493.47	-256.48	964.94	134.73	-270.92	1116.1	471.96	-242.69	1107.2	154.47	-394.58	1025.8	305.83	-286.01	719.29	470.71	-241.22	635.17	433.33	-308.85	635.74	447.98	-213.87	719.39	455	-310.96	521.58	426.92	-304.79	533.18	299.73	-434.21	322.65	416.16	-404.52	242.38	387.19	-467.77	255.13	397.86	-370.77	309.53	406.11	-491.72	121.93	365.93	-479.02	124.53	276.57	-570.3	91.657	315.57	-564.83	58.764	286.37	-565.54	60.534	351.14	-390.64	36.116	395.32	-362.95	39.356	273.35	-296.19	45.811	321.43	-110.64	732.76	153.27	-43.255	675.86	219.78	-97.322	643.81	171.19	-66.442	766.54	199.58	-78.29	555.52	187.59	-63.255	566.43	309.78	-51.055	326.94	191.52	29.675	288.72	192.41	-33.218	256.69	207.46	8.544	356.24	183	61.239	130.02	202.43	65.63	143.9	294.7	6.967	62.953	247.74	23.13	42.825	282.69	26.675	40.449	221.2	192.7	109.14	187.82	199.98	133.47	303.42	260.74	173.86	250.95	-316.7	1534.3	312.68	-374.09	1262.4	316.98
226	0.9375	-126.75	1273	316.39	-240.6	1482.1	485.47	-264.99	1477	132.56	-245.55	1797.8	302.73	-184.08	1035.6	446.27	-167.75	1033.2	194.62	NaN	NaN	NaN	-373.84	1060.2	262.53	-251.19	970.3	493.2	-250.35	964.27	134.53	-265.05	1115.5	471.73	-236.68	1106.5	154.2	-388.59	1025.1	305.49	-280.25	718.78	470.63	-235.34	634.58	433.61	-303.01	635.19	447.92	-208.01	718.86	455.22	-305.38	521.07	427.08	-298.71	532.47	299.96	-430.72	323.5	416.18	-401.97	242.85	387.26	-465.03	256.39	397.87	-367.42	309.64	406.26	-490.54	123.23	365.94	-477.85	125.85	276.64	-569.33	93.907	315.49	-564.21	61.057	286.2	-564.97	62.682	350.99	-390.51	36.094	395.25	-362.69	39.32	273.3	-296	45.443	321.43	-105.25	731.83	153.42	-37.606	674.96	219.7	-92.087	642.92	171.58	-60.645	765.65	199.24	-73.056	554.61	187.9	-57.408	565.84	309.95	-46.674	325.93	191.91	33.845	287.37	193.11	-29.213	255.63	207.91	13.062	354.96	183.63	64.773	128.81	203.12	68.859	142.55	295.45	10.173	62.398	248.09	25.915	42.078	283.02	29.788	39.845	221.57	196.33	107.31	189.13	203	131.54	304.72	264.26	171.63	252.65	-311.07	1533.7	312.49	-368.26	1261.7	316.73
227	0.94167	-120.92	1272.4	316.12	-234.93	1481.5	485.28	-259.37	1476.4	132.34	-240	1797.3	302.51	-178.12	1035.1	446.13	-161.7	1032.5	194.43	NaN	NaN	NaN	-367.85	1059.5	262.19	-245.33	969.78	492.92	-244.22	963.62	134.33	-259.16	1114.8	471.48	-230.67	1105.8	153.92	-382.58	1024.3	305.15	-274.4	718.29	470.57	-229.32	634.03	433.95	-297.05	634.66	447.9	-202.06	718.38	455.5	-299.63	520.57	427.31	-292.42	531.76	300.25	-427.1	324.44	416.25	-399.3	243.41	387.4	-462.17	257.76	397.92	-363.95	309.83	406.47	-489.26	124.64	366.01	-476.56	127.29	276.77	-568.23	96.363	315.46	-563.5	63.575	286.08	-564.32	65.026	350.88	-390.36	36.073	395.19	-362.41	39.313	273.26	-295.83	45.095	321.43	-99.831	730.93	153.58	-31.903	674.07	219.58	-86.837	642.05	171.98	-54.775	764.77	198.86	-67.816	553.72	188.21	-51.497	565.26	310.08	-42.511	324.93	192.33	37.755	285.95	193.82	-25.495	254.55	208.39	17.388	353.62	184.26	67.891	127.53	203.83	71.692	141.11	296.22	12.902	61.908	248.44	28.177	41.353	283.33	32.38	39.289	221.93	199.51	105.27	190.43	205.6	129.36	306.02	267.42	169.1	254.36	-305.44	1533.1	312.28	-362.42	1261	316.48
228	0.94583	-115.09	1271.8	315.84	-229.26	1480.9	485.08	-253.76	1475.8	132.1	-234.44	1796.8	302.29	-172.14	1034.6	445.97	-155.63	1031.9	194.21	NaN	NaN	NaN	-361.85	1058.7	261.86	-239.43	969.32	492.63	-238.08	962.98	134.14	-253.24	1114.2	471.23	-224.66	1105.1	153.63	-376.55	1023.6	304.83	-268.45	717.84	470.54	-223.16	633.5	434.38	-290.95	634.14	447.9	-196.01	717.95	455.83	-293.71	520.09	427.61	-285.91	531.03	300.61	-423.32	325.48	416.37	-396.5	244.06	387.63	-459.17	259.25	398.03	-360.35	310.09	406.76	-487.87	126.17	366.15	-475.11	128.86	276.96	-566.99	99.035	315.49	-562.68	66.33	285.99	-563.55	67.578	350.81	-390.2	36.056	395.14	-362.13	39.337	273.23	-295.68	44.765	321.43	-94.398	730.04	153.73	-26.167	673.18	219.43	-81.588	641.2	172.37	-48.845	763.89	198.45	-62.588	552.83	188.51	-45.553	564.69	310.18	-38.545	323.93	192.76	41.436	284.47	194.54	-22.027	253.47	208.88	21.538	352.24	184.89	70.649	126.21	204.56	74.188	139.59	297.01	15.219	61.497	248.79	29.983	40.665	283.62	34.514	38.794	222.27	202.29	103.07	191.72	207.84	126.96	307.29	270.24	166.29	256.07	-299.81	1532.6	312.07	-356.59	1260.3	316.22
229	0.95	-109.26	1271.4	315.54	-223.59	1480.3	484.87	-248.15	1475.3	131.86	-228.87	1796.3	302.07	-166.14	1034.2	445.79	-149.53	1031.3	193.98	NaN	NaN	NaN	-355.82	1058	261.53	-233.51	968.91	492.33	-231.94	962.37	133.96	-247.3	1113.7	470.97	-218.66	1104.5	153.33	-370.51	1022.9	304.51	-262.4	717.42	470.54	-216.85	633.01	434.88	-284.71	633.64	447.95	-189.84	717.57	456.23	-287.61	519.64	427.98	-279.18	530.3	301.05	-419.38	326.62	416.57	-393.55	244.82	387.94	-456.01	260.85	398.2	-356.61	310.44	407.11	-486.36	127.82	366.35	-473.5	130.56	277.22	-565.59	101.93	315.58	-561.73	69.333	285.96	-562.67	70.35	350.79	-390.03	36.046	395.1	-361.83	39.394	273.22	-295.54	44.453	321.43	-88.959	729.17	153.89	-20.421	672.28	219.25	-76.355	640.37	172.76	-42.872	763.01	198	-57.388	551.96	188.81	-39.609	564.11	310.25	-34.75	322.93	193.22	44.919	282.94	195.26	-18.772	252.39	209.4	25.532	350.83	185.53	73.103	124.86	205.29	76.406	138.01	297.81	17.187	61.173	249.13	31.403	40.027	283.91	36.252	38.369	222.59	204.73	100.74	192.97	209.78	124.37	308.54	272.79	163.26	257.76	-294.19	1532	311.85	-350.75	1259.7	315.96
230	0.95417	-103.43	1270.9	315.23	-217.93	1479.8	484.64	-242.54	1474.7	131.6	-223.29	1795.9	301.85	-160.14	1033.8	445.57	-143.41	1030.7	193.72	NaN	NaN	NaN	-349.78	1057.4	261.21	-227.55	968.54	492.01	-225.81	961.78	133.79	-241.33	1113.2	470.7	-212.64	1103.9	153.02	-364.45	1022.3	304.2	-256.24	717.03	470.58	-210.38	632.56	435.47	-278.32	633.15	448.05	-183.56	717.25	456.68	-281.31	519.2	428.43	-272.2	529.55	301.57	-415.27	327.87	416.82	-390.43	245.67	388.34	-452.69	262.58	398.43	-352.72	310.87	407.55	-484.7	129.6	366.62	-471.68	132.38	277.55	-564	105.07	315.73	-560.64	72.599	285.96	-561.65	73.353	350.81	-389.83	36.048	395.08	-361.52	39.486	273.21	-295.42	44.158	321.43	-83.522	728.31	154.04	-14.685	671.37	219.05	-71.151	639.54	173.14	-36.874	762.11	197.54	-52.233	551.09	189.1	-33.698	563.52	310.32	-31.1	321.95	193.7	48.239	281.38	195.99	-15.69	251.31	209.94	29.392	349.39	186.18	75.308	123.51	206.03	78.402	136.4	298.62	18.868	60.946	249.49	32.503	39.452	284.18	37.658	38.023	222.9	206.86	98.309	194.18	211.47	121.63	309.74	275.12	160.04	259.39	-288.57	1531.6	311.61	-344.91	1259.1	315.69
231	0.95833	-97.589	1270.6	314.9	-212.28	1479.3	484.4	-236.94	1474.3	131.32	-217.71	1795.5	301.63	-154.11	1033.5	445.33	-137.28	1030.2	193.43	NaN	NaN	NaN	-343.72	1056.8	260.89	-221.56	968.23	491.68	-219.67	961.21	133.63	-235.34	1112.8	470.42	-206.63	1103.4	152.7	-358.37	1021.7	303.9	-249.95	716.66	470.65	-203.73	632.14	436.15	-271.75	632.67	448.2	-177.15	716.98	457.18	-274.8	518.78	428.97	-264.97	528.8	302.16	-410.96	329.23	417.15	-387.15	246.64	388.83	-449.2	264.44	398.72	-348.67	311.39	408.06	-482.88	131.51	366.97	-469.65	134.34	277.95	-562.22	108.45	315.94	-559.37	76.138	286.01	-560.47	76.599	350.87	-389.61	36.068	395.06	-361.19	39.618	273.21	-295.31	43.877	321.42	-78.097	727.45	154.19	-8.9799	670.43	218.83	-65.989	638.71	173.51	-30.867	761.19	197.05	-47.135	550.22	189.39	-27.854	562.92	310.37	-27.567	320.98	194.2	51.431	279.81	196.72	-12.742	250.25	210.5	33.141	347.96	186.82	77.317	122.16	206.78	80.231	134.77	299.43	20.319	60.819	249.84	33.347	38.947	284.45	38.79	37.763	223.2	208.73	95.809	195.33	212.97	118.78	310.87	277.27	156.66	260.96	-282.96	1531.2	311.36	-339.07	1258.5	315.41
